PathFileType	4	(X/Y/Z)	D:\MotionData\Pi-Spi Study\20230118_AMCsubject1\Trimmed_left_abd_18001_rotated.trc
DataRate	CameraRate	NumFrames	NumMarkers	Units	OrigDataRate	OrigDataStartFrame	OrigNumFrames
200.00	200.00	       6	35	mm	200.00	51	       200
Frame#	Time	C7			Sternum			r_AMC1			r_AMC2			r_AMC3			l_AMC1			l_AMC2			l_AMC3			PX			T8			r_humerous			r_elbow_medial			r_elbow_lateral			r_forearm			r_wrist_radius			r_wrist_ulna			r_MCP_1			r_MCP_3			l_humerous			l_elbow_medial			l_elbow_lateral			l_forearm			l_wrist_radius			l_wrist_ulna			l_MCP_1			l_MCP_3			r_ASIS			r_PSIS			l_ASIS			l_PSIS			r_IC			l_IC			TS			AI			AA			
		X1	Y1	Z1	X2	Y2	Z2	X3	Y3	Z3	X4	Y4	Z4	X5	Y5	Z5	X6	Y6	Z6	X7	Y7	Z7	X8	Y8	Z8	X9	Y9	Z9	X10	Y10	Z10	X11	Y11	Z11	X12	Y12	Z12	X13	Y13	Z13	X14	Y14	Z14	X15	Y15	Z15	X16	Y16	Z16	X17	Y17	Z17	X18	Y18	Z18	X19	Y19	Z19	X20	Y20	Z20	X21	Y21	Z21	X22	Y22	Z22	X23	Y23	Z23	X24	Y24	Z24	X25	Y25	Z25	X26	Y26	Z26	X27	Y27	Z27	X28	Y28	Z28	X29	Y29	Z29	X30	Y30	Z30	X31	Y31	Z31	X32	Y32	Z32	X33	Y33	Z33	X34	Y34	Z34	X35	Y35	Z35	

51	0.25	199.3056	1368.9318	-209.0176	339.0035	1326.5682	-197.9497	194.4493	1310.5389	-60.0999	226.6131	1313.3721	-21.2512	245.9062	1350.4014	-39.9665	185.2937	1349.4285	-328.736	217.6407	1384.7671	-345.9988	215.3348	1401.8711	-296.3984	414.1507	1137.761	-207.7594	179.2026	1188.5912	-225.0568	309.0301	1134.4807	-5.2943	248.4158	991.0337	-38.2174	258.8671	1000.7008	26.9577	315.2449	846.9147	51.7658	366.5483	785.9339	35.6572	318.1084	777.6499	51.2431	390.0834	703.195	48.6039	341.0035	698.3408	60.7941	300.4699	1484.3755	-352.4654	364.9622	1568.3849	-457.0801	320.1104	1594.3799	-452.5111	346.5511	1751.1597	-463.4641	385.0767	1822.1155	-448.8773	376.5255	1817.2344	-493.1469	376.523	1892.6072	-451.7895	374.2303	1888.2351	-495.0198	374.0903	905.6108	-82.2754	188.8185	929.6049	-170.3373	381.4835	893.2607	-339.138	192.4071	924.0192	-272.1155	293.5009	969.0594	-56.2219	297.9986	941.9881	-379.4132	127.3138	1290.1849	-292.2411	153.5122	1210.4023	-348.4249	161.4744	1378.8641	-393.7244
52	0.255	199.3193	1368.9241	-208.9933	339.0511	1326.5642	-197.9548	194.4822	1310.536	-60.058	226.5547	1313.4149	-21.2173	245.9798	1350.3375	-39.943	185.2962	1349.4222	-328.7306	217.6159	1384.7579	-345.9666	215.3348	1401.8575	-296.3647	414.142	1137.7344	-207.7832	179.2254	1188.5625	-225.0232	309.081	1134.4377	-5.2635	248.413	991.0087	-38.1707	258.9135	1000.7113	26.9632	315.2403	846.9194	51.8093	366.5699	785.8201	35.7488	318.117	777.5866	51.3055	390.0376	703.2147	48.6907	340.9245	698.4083	60.867	300.4745	1484.3893	-352.4444	364.9475	1568.3763	-457.0755	320.1139	1594.3772	-452.4898	346.5703	1751.1504	-463.4334	385.1166	1822.0774	-448.857	376.5486	1817.1991	-493.127	376.5342	1892.5874	-451.7456	374.2318	1888.2311	-494.9676	374.1753	905.6224	-82.2445	188.685	929.7232	-170.3598	381.4755	893.2365	-339.1186	192.4385	924.0158	-272.1181	293.611	969.0298	-56.2126	298.0394	942.0187	-379.4585	127.3233	1290.2064	-292.1837	153.5378	1210.3829	-348.3999	161.4674	1378.8252	-393.6884
53	0.26	199.3149	1368.9299	-208.9521	339.0598	1326.547	-197.9156	194.5159	1310.5414	-60.0329	226.6926	1313.3219	-21.175	245.9937	1350.3318	-39.9027	185.3111	1349.4088	-328.7055	217.646	1384.7653	-345.9488	215.3547	1401.8472	-296.3483	414.1606	1137.7229	-207.769	179.2287	1188.582	-225.0101	309.0747	1134.4211	-5.2426	248.4303	991.0113	-38.1371	258.9092	1000.7019	27.0506	315.256	846.9121	51.8871	366.568	785.8187	35.8046	318.0922	777.6016	51.3669	390.1066	703.0783	48.7088	340.8542	698.4832	60.9511	300.4605	1484.3838	-352.4271	364.9104	1568.4003	-457.0547	320.1134	1594.3713	-452.4541	346.5699	1751.168	-463.3547	385.1301	1822.0789	-448.8203	376.5643	1817.1855	-493.0386	376.5709	1892.5903	-451.6938	374.2601	1888.3007	-494.8941	374.2241	905.6284	-82.2516	188.8719	929.608	-170.3079	381.4827	893.1965	-339.1144	192.4618	924.0034	-272.1201	293.6352	969.041	-56.1499	298.0555	942.0205	-379.4587	127.3314	1290.1517	-292.1197	153.5597	1210.3592	-348.3003	161.4653	1378.7861	-393.6573
54	0.265	199.3278	1368.9147	-208.9406	339.0807	1326.5467	-197.9124	194.5445	1310.5367	-59.9993	226.6975	1313.3756	-21.1703	246.0089	1350.3313	-39.8551	185.295	1349.3906	-328.6587	217.6406	1384.7238	-345.9164	215.3502	1401.8249	-296.3178	414.1877	1137.7112	-207.7785	179.2349	1188.5734	-224.9711	309.1072	1134.4181	-5.1822	248.4665	991.0051	-38.1025	258.9264	1000.7141	27.081	315.2168	846.9349	51.9556	366.5212	785.8901	35.8869	318.0776	777.611	51.4115	390.0532	703.0983	48.822	340.8712	698.4155	60.976	300.5044	1484.3336	-352.3967	364.965	1568.3099	-457.0523	320.1051	1594.3701	-452.4149	346.5747	1751.1512	-463.3218	385.1702	1822.0553	-448.7779	376.5839	1817.1848	-493.0119	376.6112	1892.5748	-451.6451	374.2754	1888.3042	-494.8593	374.2353	905.6267	-82.2418	188.9096	929.6003	-170.3009	381.5257	893.2096	-339.0949	192.5005	924.031	-272.1112	293.6484	969.0623	-56.1623	298.1368	941.9265	-379.4498	127.3562	1290.106	-292.077	153.5619	1210.3048	-348.2402	161.4701	1378.7655	-393.6287
55	0.27	199.3422	1368.9105	-208.9081	339.0901	1326.5536	-197.8793	194.5981	1310.524	-59.9775	226.7182	1313.3579	-21.1058	246.0131	1350.3495	-39.846	185.3128	1349.3927	-328.623	217.627	1384.7101	-345.8695	215.3614	1401.8278	-296.3	414.2398	1137.7084	-207.7874	179.2637	1188.5591	-224.9503	309.1344	1134.4139	-5.1704	248.4669	991.0062	-38.0612	258.9594	1000.6937	27.1251	315.2388	846.9139	51.9896	366.569	785.8582	35.9206	318.0974	777.5417	51.4902	390.057	703.1227	48.8516	340.9341	698.4146	61.0654	300.5214	1484.2997	-352.3699	364.9448	1568.3043	-457.0028	320.1046	1594.3763	-452.3811	346.6079	1751.1548	-463.2417	385.1641	1822.0715	-448.7445	376.5953	1817.1765	-492.9855	376.6228	1892.5461	-451.586	374.3155	1888.243	-494.8286	374.2987	905.6345	-82.2302	188.7504	929.7103	-170.3334	381.5648	893.1689	-339.07	192.4914	924.038	-272.0819	293.7336	969.0446	-56.0962	298.1255	941.9456	-379.4171	127.3793	1290.0723	-292.0331	153.5831	1210.27	-348.1561	161.4351	1378.7082	-393.6137
56	0.275	199.3581	1368.8954	-208.8791	339.1167	1326.548	-197.886	194.6081	1310.4985	-59.9639	226.7335	1313.3169	-21.0855	246.0781	1350.2911	-39.8329	185.3316	1349.3735	-328.6123	217.664	1384.692	-345.8955	215.356	1401.8013	-296.271	414.2578	1137.7189	-207.791	179.3099	1188.5574	-224.9103	309.1719	1134.3992	-5.1445	248.4621	990.984	-38.0134	258.9991	1000.7191	27.19	315.2687	846.9086	52.0375	366.5897	785.8007	35.989	318.0038	777.6255	51.5502	389.8973	702.9606	48.9667	340.9228	698.3999	61.121	300.5473	1484.2982	-352.338	364.929	1568.3365	-456.9478	320.1183	1594.3724	-452.3544	346.6017	1751.1483	-463.1763	385.1965	1822.0662	-448.6964	376.6287	1817.1879	-492.9185	376.6658	1892.5482	-451.5611	374.3542	1888.3042	-494.7455	374.3019	905.6294	-82.2205	188.8019	929.7224	-170.3237	381.5588	893.1885	-339.083	192.5528	924.0222	-272.081	293.7534	969.0297	-56.1183	298.1279	941.978	-379.4356	127.4068	1290.0584	-291.9704	153.6004	1210.2792	-348.0777	161.4328	1378.6846	-393.5833
